# xmcd
#
# Track frame offsets:
#	150
#	22132
#	49034
#	74444
#	98124
#	120369
#	143480
#	169247
#	189652
#	215592
#
# Disc length: 3196 seconds
#
# Revision: 3882783804
# Processed by: cddbd v1.5.2PL0 Copyright (c) Steve Scherf et al.
# Submitted via: EZCDAudioConverter 8.0.2.1
#
DISCID=8e0c7a0a
DTITLE=Phương Diễm Hạnh - Hạ Buồn
DYEAR=2003
DGENRE=
TTITLE0=Hạ Buồn
TTITLE1=Trăng tàn trên hè phố
TTITLE2=Chỉ hai đứa mình thôi nhé
TTITLE3=Tình hậu phương
TTITLE4=Thu tím lá vàng
TTITLE5=Bỏ phố lên rừng
TTITLE6=Buồn vào đêm
TTITLE7=Đò tình lỡ chuyến
TTITLE8=Từ khi vắng anh
TTITLE9=Tâm sự của em
EXTD=
EXTT0=
EXTT1=
EXTT2=
EXTT3=
EXTT4=
EXTT5=
EXTT6=
EXTT7=
EXTT8=
EXTT9=
PLAYORDER=
